<?xml version="1.0" encoding="UTF-8" standalone="no"?>
<!-- Created with Inkscape (http://www.inkscape.org/) -->

<svg
   width="22"
   height="22"
   id="svg6662"
   version="1.1"
   inkscape:version="1.1.2 (0a00cf5339, 2022-02-04)"
   sodipodi:docname="bug.svg"
   xmlns:inkscape="http://www.inkscape.org/namespaces/inkscape"
   xmlns:sodipodi="http://sodipodi.sourceforge.net/DTD/sodipodi-0.dtd"
   xmlns="http://www.w3.org/2000/svg"
   xmlns:svg="http://www.w3.org/2000/svg"
   xmlns:rdf="http://www.w3.org/1999/02/22-rdf-syntax-ns#"
   xmlns:cc="http://creativecommons.org/ns#"
   xmlns:dc="http://purl.org/dc/elements/1.1/">
  <defs
     id="defs6664">
    <linearGradient
       y2="11.02436"
       y1="3.0069399"
       x2="0"
       id="linearGradient1022-8-8-3-0-2-5-0"
       gradientUnits="userSpaceOnUse">
      <stop
         id="stop3001-0-9-4-1-6-9"
         offset="0" />
      <stop
         id="stop3003-5-6-6-1-6-7"
         stop-color="#363636"
         offset="1" />
    </linearGradient>
  </defs>
  <sodipodi:namedview
     id="base"
     pagecolor="#ffffff"
     bordercolor="#666666"
     borderopacity="1.0"
     inkscape:pageopacity="0.0"
     inkscape:pageshadow="2"
     inkscape:zoom="21.123296"
     inkscape:cx="11.811604"
     inkscape:cy="12.900449"
     inkscape:document-units="px"
     inkscape:current-layer="capa1"
     showgrid="true"
     inkscape:showpageshadow="false"
     inkscape:window-width="1920"
     inkscape:window-height="1025"
     inkscape:window-x="0"
     inkscape:window-y="0"
     inkscape:window-maximized="1"
     inkscape:snap-bbox="true"
     inkscape:snap-global="false"
     inkscape:pagecheckerboard="0">
    <inkscape:grid
       type="xygrid"
       id="grid3327"
       empspacing="5"
       visible="true"
       enabled="true"
       snapvisiblegridlinesonly="true" />
  </sodipodi:namedview>
  <metadata
     id="metadata6667">
    <rdf:RDF>
      <cc:Work
         rdf:about="">
        <dc:format>image/svg+xml</dc:format>
        <dc:type
           rdf:resource="http://purl.org/dc/dcmitype/StillImage" />
      </cc:Work>
    </rdf:RDF>
  </metadata>
  <g
     inkscape:label="Capa 1"
     inkscape:groupmode="layer"
     id="capa1"
     transform="translate(0,-1030.3622)">
    <g
       id="g832"
       transform="matrix(1.7743326,0,0,1.7743326,-3.8953427,-804.52176)">
      <path
         style="opacity:1;fill:#000000;fill-opacity:1;stroke:none;stroke-width:0;stroke-linecap:butt;stroke-linejoin:miter;stroke-miterlimit:4;stroke-dasharray:none;stroke-opacity:1;paint-order:normal"
         d="m 13.15356,1037.9919 1.422,-1.4201 -1.2924,-1.2923 -1.7546,1.7546 c -0.4222,-0.1581 -0.8726,-0.2719 -1.338,-0.338 v -2.1941 H 8.3660603 v 2.1836 c -0.5744,0.076 -1.1265,0.2239 -1.6321,0.4378 l -1.8247,-1.8247 -1.2905,1.2906 1.5532,1.5532 c 0.5685,0.6102 0.8426,1.329 0.9101,1.8093 l 8.0004997,0.01 c 0.01,-0.8611 -0.1888,-1.3077 -0.929,-1.97 z"
         id="path1007" />
      <path
         style="opacity:1;fill:#000000;fill-opacity:1;stroke:none;stroke-width:0;stroke-linecap:butt;stroke-linejoin:miter;stroke-miterlimit:4;stroke-dasharray:none;stroke-opacity:1;paint-order:normal"
         d="m 6.0917603,1040.8597 c -0.068,0.5795 -0.4894,1.2966 -0.89,1.7079 l -1.5866,1.5865 1.2906,1.2906 1.8685,-1.8684 c 0.4798,0.1971 1.0003,0.3355 1.5409,0.4097 v 2.2099 H 10.13986 v -2.2064 c 0.4721,-0.062 0.9295,-0.1739 1.3588,-0.3309 l 1.7897,1.7896 1.2906,-1.2923 -1.4465,-1.4464 c 0.7541,-0.6657 0.9276,-1.0122 0.9278,-1.8708 z"
         id="path1005" />
      <path
         style="opacity:1;fill:#000000;fill-opacity:1;stroke:none;stroke-width:0;stroke-linecap:butt;stroke-linejoin:miter;stroke-miterlimit:4;stroke-dasharray:none;stroke-opacity:1;paint-order:normal"
         d="m 4.5941603,1038.878 c -0.234,-0.2364 -0.5272,-0.276 -0.816,-0.2767 -0.8487,-6e-4 -1.5371,0.8039 -1.5375,1.7967 4e-4,0.9928 0.6888,1.7973 1.5375,1.7966 0.3101,-10e-5 0.6546,-0.08 0.9333,-0.3637 0.2786,-0.2839 0.5473,-0.6016 0.5408,-1.4342 -0.01,-0.8326 -0.4241,-1.2823 -0.6581,-1.5187 z"
         id="path820" />
    </g>
  </g>
</svg>
