<?xml version="1.0" encoding="UTF-8" standalone="no"?>
<!-- Created with Inkscape (http://www.inkscape.org/) -->

<svg
   xmlns:dc="http://purl.org/dc/elements/1.1/"
   xmlns:cc="http://creativecommons.org/ns#"
   xmlns:rdf="http://www.w3.org/1999/02/22-rdf-syntax-ns#"
   xmlns:svg="http://www.w3.org/2000/svg"
   xmlns="http://www.w3.org/2000/svg"
   xmlns:sodipodi="http://sodipodi.sourceforge.net/DTD/sodipodi-0.dtd"
   xmlns:inkscape="http://www.inkscape.org/namespaces/inkscape"
   width="24"
   height="24"
   id="svg6662"
   version="1.1"
   inkscape:version="0.92.5 (2060ec1f9f, 2020-04-08)"
   sodipodi:docname="config.svg">
  <defs
     id="defs6664">
    <linearGradient
       y2="11.02436"
       y1="3.0069399"
       x2="0"
       id="linearGradient1022-8-8-3-0-05-34"
       gradientUnits="userSpaceOnUse">
      <stop
         id="stop3001-0-9-4-49-1"
         offset="0" />
      <stop
         id="stop3003-5-6-6-8-9"
         stop-color="#363636"
         offset="1" />
    </linearGradient>
  </defs>
  <sodipodi:namedview
     id="base"
     pagecolor="#ffffff"
     bordercolor="#666666"
     borderopacity="1.0"
     inkscape:pageopacity="0.0"
     inkscape:pageshadow="2"
     inkscape:zoom="3.959798"
     inkscape:cx="31.628015"
     inkscape:cy="12.379252"
     inkscape:document-units="px"
     inkscape:current-layer="capa1"
     showgrid="false"
     inkscape:showpageshadow="false"
     inkscape:window-width="860"
     inkscape:window-height="702"
     inkscape:window-x="484"
     inkscape:window-y="29"
     inkscape:window-maximized="0" />
  <metadata
     id="metadata6667">
    <rdf:RDF>
      <cc:Work
         rdf:about="">
        <dc:format>image/svg+xml</dc:format>
        <dc:type
           rdf:resource="http://purl.org/dc/dcmitype/StillImage" />
        <dc:title />
      </cc:Work>
    </rdf:RDF>
  </metadata>
  <g
     inkscape:label="Capa 1"
     inkscape:groupmode="layer"
     id="capa1"
     transform="translate(0,-1028.3622)">
    <path
       inkscape:connector-curvature="0"
       id="path6419"
       d="m 11.00003,1031.3622 0,3.1563 c -0.97646,0.1998 -1.88949,0.5858 -2.6875,1.125 l -0.0312,0 -2.28125,-2.2813 -2,2 2.28125,2.2813 c -0.005,0.01 0.005,0.024 0,0.031 -0.53912,0.798 -0.92519,1.711 -1.125,2.6875 l -2.15625,0 0,3 2.15625,0 c 0.19981,0.9764 0.58588,1.8895 1.125,2.6875 0.005,0.01 -0.005,0.024 0,0.031 l -2.2813,2.2813 2,2 2.28125,-2.2812 c 0.007,0.01 0.0244,-0 0.0312,0 0.79801,0.5391 1.71104,0.9251 2.6875,1.125 l 0,3.1562 3,0 0,-3.1562 c 0.97646,-0.1999 1.88949,-0.5859 2.6875,-1.125 l 0.0312,0 2.28125,2.2812 2,-2 -2.28125,-2.2812 0,-0.031 c 0.53912,-0.798 0.92519,-1.7111 1.125,-2.6875 l 2.15625,0 0,-3 -2.15625,0 c -0.19981,-0.9765 -0.58588,-1.8895 -1.125,-2.6875 l 0,-0.031 2.28125,-2.2813 -2,-2 -2.28125,2.2813 -0.0312,0 c -0.79801,-0.5392 -1.71104,-0.9252 -2.6875,-1.125 l 0,-3.1563 -3,0 z m 1.5,6 c 2.48528,0 4.5,2.0147 4.5,4.5 0,2.4853 -2.01472,4.5 -4.5,4.5 -2.48528,0 -4.5,-2.0147 -4.5,-4.5 0,-2.4853 2.01472,-4.5 4.5,-4.5 z"
       style="color:#000000;display:inline;overflow:visible;visibility:visible;opacity:0.6;fill:#ffffff;fill-opacity:1;fill-rule:nonzero;stroke:none;stroke-width:1;marker:none;enable-background:accumulate" />
    <path
       style="color:#000000;display:inline;overflow:visible;visibility:visible;opacity:0.7;fill:#000000;fill-opacity:1;fill-rule:nonzero;stroke:none;stroke-width:1;marker:none;enable-background:accumulate"
       d="m 10.99998,1030.3622 0,3.1563 c -0.97646,0.1998 -1.88949,0.5858 -2.6875,1.125 l -0.0312,0 -2.28125,-2.2813 -2,2 2.28125,2.2813 c -0.005,0.01 0.005,0.024 0,0.031 -0.53912,0.798 -0.92519,1.711 -1.125,2.6875 l -2.15625,0 0,3 2.15625,0 c 0.19981,0.9764 0.58588,1.8895 1.125,2.6875 0.005,0.01 -0.005,0.024 0,0.031 l -2.2813,2.2813 2,2 2.28125,-2.2812 c 0.007,0.01 0.0244,-0 0.0312,0 0.79801,0.5391 1.71104,0.9251 2.6875,1.125 l 0,3.1562 3,0 0,-3.1562 c 0.97646,-0.1999 1.88949,-0.5859 2.6875,-1.125 l 0.0312,0 2.28125,2.2812 2,-2 -2.28125,-2.2812 0,-0.031 c 0.53912,-0.798 0.92519,-1.7111 1.125,-2.6875 l 2.15625,0 0,-3 -2.15625,0 c -0.19981,-0.9765 -0.58588,-1.8895 -1.125,-2.6875 l 0,-0.031 2.28125,-2.2813 -2,-2 -2.28125,2.2813 -0.0312,0 c -0.79801,-0.5392 -1.71104,-0.9252 -2.6875,-1.125 l 0,-3.1563 -3,0 z m 1.5,6 c 2.48528,0 4.5,2.0147 4.5,4.5 0,2.4853 -2.01472,4.5 -4.5,4.5 -2.48528,0 -4.5,-2.0147 -4.5,-4.5 0,-2.4853 2.01472,-4.5 4.5,-4.5 z"
       id="path5266"
       inkscape:connector-curvature="0" />
  </g>
</svg>
