<?xml version="1.0" encoding="UTF-8" standalone="no"?>
<!-- Created with Inkscape (http://www.inkscape.org/) -->

<svg
   xmlns:dc="http://purl.org/dc/elements/1.1/"
   xmlns:cc="http://creativecommons.org/ns#"
   xmlns:rdf="http://www.w3.org/1999/02/22-rdf-syntax-ns#"
   xmlns:svg="http://www.w3.org/2000/svg"
   xmlns="http://www.w3.org/2000/svg"
   xmlns:sodipodi="http://sodipodi.sourceforge.net/DTD/sodipodi-0.dtd"
   xmlns:inkscape="http://www.inkscape.org/namespaces/inkscape"
   width="22"
   height="22"
   id="svg6662"
   version="1.1"
   inkscape:version="0.92.5 (2060ec1f9f, 2020-04-08)"
   sodipodi:docname="find.svg">
  <defs
     id="defs6664">
    <linearGradient
       y2="11.02436"
       y1="3.0069399"
       x2="0"
       id="linearGradient1022-8-8-3-0-27-2"
       gradientUnits="userSpaceOnUse">
      <stop
         id="stop3001-0-9-4-6-8"
         offset="0" />
      <stop
         id="stop3003-5-6-6-01-8"
         stop-color="#363636"
         offset="1" />
    </linearGradient>
  </defs>
  <sodipodi:namedview
     id="base"
     pagecolor="#ffffff"
     bordercolor="#666666"
     borderopacity="1.0"
     inkscape:pageopacity="0.0"
     inkscape:pageshadow="2"
     inkscape:zoom="3.959798"
     inkscape:cx="31.628015"
     inkscape:cy="13.136866"
     inkscape:document-units="px"
     inkscape:current-layer="capa1"
     showgrid="false"
     inkscape:showpageshadow="false"
     inkscape:window-width="860"
     inkscape:window-height="702"
     inkscape:window-x="484"
     inkscape:window-y="29"
     inkscape:window-maximized="0" />
  <metadata
     id="metadata6667">
    <rdf:RDF>
      <cc:Work
         rdf:about="">
        <dc:format>image/svg+xml</dc:format>
        <dc:type
           rdf:resource="http://purl.org/dc/dcmitype/StillImage" />
        <dc:title />
      </cc:Work>
    </rdf:RDF>
  </metadata>
  <g
     inkscape:label="Capa 1"
     inkscape:groupmode="layer"
     id="capa1"
     transform="translate(0,-1030.3622)">
    <path
       sodipodi:nodetypes="ccccccccccccccccccccccccccccccccccccccccccccccc"
       inkscape:connector-curvature="0"
       id="path6315"
       d="m 4,1032.3615 -2,2 0,11 2,2 11,0 5,5 2,-2 -5,-5 0,-10.5 -2.5,-2.5 z m 1,2 9,0 1,1 0,9 -1,1 -9,0 -1,-1 0,-9 z m -1,15.0007 -1,1 0,1 1,1 1,0 1,-1 0,-1 -1,-1 z m 4,-7e-4 -1,1 0,1 1,1 1,0 1,-1 0,-1 -1,-1 z m 4,7e-4 -1,1 0,1 1,1 1,0 1,-1 0,-1 -1,-1 z"
       style="color:#000000;display:inline;overflow:visible;visibility:visible;opacity:0.6;fill:#ffffff;fill-opacity:1;fill-rule:nonzero;stroke:none;stroke-width:1;marker:none;enable-background:accumulate" />
    <path
       style="color:#000000;display:inline;overflow:visible;visibility:visible;opacity:0.7;fill:#000000;fill-opacity:1;fill-rule:nonzero;stroke:none;stroke-width:1;marker:none;enable-background:accumulate"
       d="m 4,1031.3615 -2,2 0,11 2,2 11,0 5,5 2,-2 -5,-5 0,-10.5 -2.5,-2.5 z m 1,2 9,0 1,1 0,9 -1,1 -9,0 -1,-1 0,-9 z m -1,15.0007 -1,1 0,1 1,1 1,0 1,-1 0,-1 -1,-1 z m 4,-7e-4 -1,1 0,1 1,1 1,0 1,-1 0,-1 -1,-1 z m 4,7e-4 -1,1 0,1 1,1 1,0 1,-1 0,-1 -1,-1 z"
       id="path4358"
       inkscape:connector-curvature="0"
       sodipodi:nodetypes="ccccccccccccccccccccccccccccccccccccccccccccccc" />
  </g>
</svg>
