<?xml version="1.0" encoding="UTF-8" standalone="no"?>
<!-- Created with Inkscape (http://www.inkscape.org/) -->

<svg
   xmlns:dc="http://purl.org/dc/elements/1.1/"
   xmlns:cc="http://creativecommons.org/ns#"
   xmlns:rdf="http://www.w3.org/1999/02/22-rdf-syntax-ns#"
   xmlns:svg="http://www.w3.org/2000/svg"
   xmlns="http://www.w3.org/2000/svg"
   xmlns:sodipodi="http://sodipodi.sourceforge.net/DTD/sodipodi-0.dtd"
   xmlns:inkscape="http://www.inkscape.org/namespaces/inkscape"
   width="22"
   height="22"
   id="svg6662"
   version="1.1"
   inkscape:version="0.92.5 (2060ec1f9f, 2020-04-08)"
   sodipodi:docname="upload.svg">
  <defs
     id="defs6664">
    <linearGradient
       y2="11.02436"
       y1="3.0069399"
       x2="0"
       id="linearGradient1022-8-8-3-0-2-5-0"
       gradientUnits="userSpaceOnUse">
      <stop
         id="stop3001-0-9-4-1-6-9"
         offset="0" />
      <stop
         id="stop3003-5-6-6-1-6-7"
         stop-color="#363636"
         offset="1" />
    </linearGradient>
    <linearGradient
       y2="11.02436"
       y1="3.0069399"
       x2="0"
       id="linearGradient1022-8-8-3-0-2-5-0-6"
       gradientUnits="userSpaceOnUse">
      <stop
         id="stop3001-0-9-4-1-6-9-7"
         offset="0" />
      <stop
         id="stop3003-5-6-6-1-6-7-5"
         stop-color="#363636"
         offset="1" />
    </linearGradient>
    <linearGradient
       y2="11.02436"
       y1="3.0069399"
       x2="0"
       id="linearGradient1022-8-8-3-0-2-5-0-2"
       gradientUnits="userSpaceOnUse">
      <stop
         id="stop3001-0-9-4-1-6-9-9"
         offset="0" />
      <stop
         id="stop3003-5-6-6-1-6-7-1"
         stop-color="#363636"
         offset="1" />
    </linearGradient>
    <linearGradient
       y2="11.02436"
       y1="3.0069399"
       x2="0"
       id="linearGradient1022-8-8-3-0-2-5-0-2-9"
       gradientUnits="userSpaceOnUse">
      <stop
         id="stop3001-0-9-4-1-6-9-9-3"
         offset="0" />
      <stop
         id="stop3003-5-6-6-1-6-7-1-6"
         stop-color="#363636"
         offset="1" />
    </linearGradient>
    <linearGradient
       y2="11.02436"
       y1="3.0069399"
       x2="0"
       id="linearGradient1022-8-8-3-0-2-5-0-6-6"
       gradientUnits="userSpaceOnUse">
      <stop
         id="stop3001-0-9-4-1-6-9-7-2"
         offset="0" />
      <stop
         id="stop3003-5-6-6-1-6-7-5-6"
         stop-color="#363636"
         offset="1" />
    </linearGradient>
    <linearGradient
       y2="11.02436"
       y1="3.0069399"
       x2="0"
       id="linearGradient1022-8-8-3-0-2-5-0-8"
       gradientUnits="userSpaceOnUse">
      <stop
         id="stop3001-0-9-4-1-6-9-79"
         offset="0" />
      <stop
         id="stop3003-5-6-6-1-6-7-2"
         stop-color="#363636"
         offset="1" />
    </linearGradient>
    <linearGradient
       y2="11.02436"
       y1="3.0069399"
       x2="0"
       id="linearGradient946"
       gradientUnits="userSpaceOnUse">
      <stop
         id="stop942"
         offset="0" />
      <stop
         id="stop944"
         stop-color="#363636"
         offset="1" />
    </linearGradient>
    <linearGradient
       y2="11.02436"
       y1="3.0069399"
       x2="0"
       id="linearGradient1022-8-8-3-0-2-5-0-2-9-2"
       gradientUnits="userSpaceOnUse">
      <stop
         id="stop3001-0-9-4-1-6-9-9-3-2"
         offset="0" />
      <stop
         id="stop3003-5-6-6-1-6-7-1-6-8"
         stop-color="#363636"
         offset="1" />
    </linearGradient>
    <linearGradient
       y2="11.02436"
       y1="3.0069399"
       x2="0"
       id="linearGradient1022-8-8-3-0-2-5-0-2-9-3"
       gradientUnits="userSpaceOnUse">
      <stop
         id="stop3001-0-9-4-1-6-9-9-3-6"
         offset="0" />
      <stop
         id="stop3003-5-6-6-1-6-7-1-6-1"
         stop-color="#363636"
         offset="1" />
    </linearGradient>
  </defs>
  <sodipodi:namedview
     id="base"
     pagecolor="#ffffff"
     bordercolor="#666666"
     borderopacity="1.0"
     inkscape:pageopacity="0.0"
     inkscape:pageshadow="2"
     inkscape:zoom="22.627417"
     inkscape:cx="5.4491308"
     inkscape:cy="12.606449"
     inkscape:document-units="px"
     inkscape:current-layer="capa1"
     showgrid="true"
     inkscape:showpageshadow="false"
     inkscape:window-width="1920"
     inkscape:window-height="1019"
     inkscape:window-x="0"
     inkscape:window-y="0"
     inkscape:window-maximized="1"
     inkscape:snap-bbox="true"
     inkscape:snap-others="false"
     inkscape:object-nodes="true"
     inkscape:snap-nodes="true"
     inkscape:snap-global="false">
    <inkscape:grid
       type="xygrid"
       id="grid3327"
       empspacing="5"
       visible="true"
       enabled="true"
       snapvisiblegridlinesonly="true" />
  </sodipodi:namedview>
  <metadata
     id="metadata6667">
    <rdf:RDF>
      <cc:Work
         rdf:about="">
        <dc:format>image/svg+xml</dc:format>
        <dc:type
           rdf:resource="http://purl.org/dc/dcmitype/StillImage" />
        <dc:title />
      </cc:Work>
    </rdf:RDF>
  </metadata>
  <g
     inkscape:label="Capa 1"
     inkscape:groupmode="layer"
     id="capa1"
     transform="translate(0,-1030.3622)">
    <path
       inkscape:connector-curvature="0"
       id="path845-3"
       style="color:#000000;display:inline;overflow:visible;visibility:visible;opacity:0.6;fill:#ffffff;fill-opacity:1;fill-rule:nonzero;stroke:none;stroke-width:1;marker:none;enable-background:accumulate"
       d="m 16.124491,1053.3017 c 0.7202,0 1.3539,-0.6507 1.3437,-1.375 v -4.375 l 0.875,0.875 c 0.5056,0.5084 1.4007,0.5084 1.9063,0 0.5055,-0.5083 0.5056,-1.4603 0,-1.9689 l -3.1563,-3.1875 -0.9687,-0.9686 -0.9688,0.9686 -3.187499,3.1875 c -0.4329,0.5716 -0.5055,1.4605 0,1.9689 0.5056,0.5084 1.431999,0.5084 1.937499,0 l 0.8438,-0.875 v 4.375 c -0.01,0.7243 0.6548,1.375 1.375,1.375 z m -12.3975609,-20.9598 -0.6816406,1.0685 v 2.1386 H 2.1253676 c -0.5923,2e-4 -1.0703125,0.478 -1.0703125,1.0703 v 7.4825 c 0,0.5923 0.4780125,1.0706 1.0703125,1.0703 h 0.9179687 l 0.00195,2.1387 0.6816406,1.0683 h 1.0683594 l 0.6425781,-1.084 v -2.1386 l 2.953125,0.016 v 2.1387 l 0.681641,1.0683 h 1.0703126 l 0.642578,-1.084 v -2.1386 l 1.197265,0.01 1.898438,-2.041 H 3.0238051 v -5.5625 H 16.148805 v 3.1777 l 0.945312,1.0156 1.066407,1.1582 v -6.293 c 0,-0.5923 -0.47606,-1.0701 -1.06836,-1.0703 l -0.96289,-0.016 v -2.1387 l -0.642578,-1.0527 h -1.06836 l -0.683593,1.0684 v 2.1386 l -2.949219,-0.016 v -2.1387 l -0.642578,-1.0527 H 9.0726334 l -0.681641,1.0684 v 2.1386 l -2.9531248,-0.016 v -2.1387 l -0.6425781,-1.0527 z" />
    <path
       id="path845"
       style="color:#000000;display:inline;overflow:visible;visibility:visible;opacity:0.7;fill:#000000;fill-opacity:1;fill-rule:nonzero;stroke:none;stroke-width:1;marker:none;enable-background:accumulate"
       d="m 16.100686,1052.3219 c 0.7202,0 1.3539,-0.6507 1.3437,-1.375 v -4.375 l 0.875,0.875 c 0.5056,0.5085 1.4007,0.5085 1.9063,0 0.5055,-0.5083 0.5056,-1.4603 0,-1.9688 l -3.1563,-3.1875 -0.9687,-0.9687 -0.9688,0.9687 -3.187499,3.1875 c -0.4329,0.5716 -0.5055,1.4605 0,1.9688 0.5056,0.5085 1.431999,0.5085 1.937499,0 l 0.8438,-0.875 v 4.375 c -0.01,0.7243 0.6548,1.375 1.375,1.375 z m -12.397561,-20.9597 -0.6816406,1.0684 v 2.1386 H 2.1015625 c -0.5923,2e-4 -1.0703125,0.478 -1.0703125,1.0703 v 7.4825 c 0,0.5923 0.4780125,1.0706 1.0703125,1.0703 h 0.9179687 l 0.00195,2.1387 0.6816406,1.0683 h 1.0683594 l 0.6425781,-1.084 v -2.1386 l 2.953125,0.016 v 2.1387 l 0.6816406,1.0683 h 1.0703129 l 0.642578,-1.084 v -2.1386 l 1.197265,0.01 1.898438,-2.041 H 3 v -5.5625 h 13.125 v 3.1777 l 0.945312,1.0156 1.066407,1.1582 v -6.293 c 0,-0.5923 -0.47606,-1.0701 -1.06836,-1.0703 l -0.96289,-0.016 v -2.1387 l -0.642578,-1.0527 h -1.06836 l -0.683593,1.0684 v 2.1386 l -2.949219,-0.016 v -2.1387 l -0.642578,-1.0527 H 9.0488281 l -0.6816406,1.0684 v 2.1386 l -2.953125,-0.016 v -2.1387 l -0.6425781,-1.0527 z" />
  </g>
</svg>
