<?xml version="1.0" encoding="UTF-8" standalone="no"?>
<!-- Created with Inkscape (http://www.inkscape.org/) -->

<svg
   xmlns:dc="http://purl.org/dc/elements/1.1/"
   xmlns:cc="http://creativecommons.org/ns#"
   xmlns:rdf="http://www.w3.org/1999/02/22-rdf-syntax-ns#"
   xmlns:svg="http://www.w3.org/2000/svg"
   xmlns="http://www.w3.org/2000/svg"
   xmlns:sodipodi="http://sodipodi.sourceforge.net/DTD/sodipodi-0.dtd"
   xmlns:inkscape="http://www.inkscape.org/namespaces/inkscape"
   width="22"
   height="22"
   id="svg6662"
   version="1.1"
   inkscape:version="0.92.5 (2060ec1f9f, 2020-04-08)"
   sodipodi:docname="verify.svg">
  <defs
     id="defs6664">
    <linearGradient
       y2="11.02436"
       y1="3.0069399"
       x2="0"
       id="linearGradient1022-8-8-3-0-2-5-0"
       gradientUnits="userSpaceOnUse">
      <stop
         id="stop3001-0-9-4-1-6-9"
         offset="0" />
      <stop
         id="stop3003-5-6-6-1-6-7"
         stop-color="#363636"
         offset="1" />
    </linearGradient>
  </defs>
  <sodipodi:namedview
     id="base"
     pagecolor="#ffffff"
     bordercolor="#666666"
     borderopacity="1.0"
     inkscape:pageopacity="0.0"
     inkscape:pageshadow="2"
     inkscape:zoom="21.868421"
     inkscape:cx="12.578933"
     inkscape:cy="3.9982332"
     inkscape:document-units="px"
     inkscape:current-layer="capa1"
     showgrid="true"
     inkscape:showpageshadow="false"
     inkscape:window-width="1920"
     inkscape:window-height="1049"
     inkscape:window-x="1920"
     inkscape:window-y="0"
     inkscape:window-maximized="1"
     inkscape:snap-bbox="true"
     inkscape:snap-global="false">
    <inkscape:grid
       type="xygrid"
       id="grid3327"
       empspacing="5"
       visible="true"
       enabled="true"
       snapvisiblegridlinesonly="true" />
  </sodipodi:namedview>
  <metadata
     id="metadata6667">
    <rdf:RDF>
      <cc:Work
         rdf:about="">
        <dc:format>image/svg+xml</dc:format>
        <dc:type
           rdf:resource="http://purl.org/dc/dcmitype/StillImage" />
        <dc:title />
      </cc:Work>
    </rdf:RDF>
  </metadata>
  <g
     inkscape:label="Capa 1"
     inkscape:groupmode="layer"
     id="capa1"
     transform="translate(0,-1030.3622)">
    <path
       inkscape:connector-curvature="0"
       id="path862-3"
       style="opacity:0.6;fill:#ffffff;fill-opacity:1;stroke:#000000;stroke-width:0;stroke-linecap:butt;stroke-linejoin:miter;stroke-miterlimit:4;stroke-dasharray:none;stroke-opacity:1"
       d="m 6.1442091,1042.1063 0.00138,-1.4463 1.5270554,-0.01 3.2746265,3.2401 7.491889,-7.3664 1.520458,-3e-4 v 1.6234 l -8.322502,8.0024 h -1.41757 z m -1.1753238,9.2498 c -1.9030256,0 -3.98506114,-2.0898 -3.98506114,-4 v -11 c 0,-1.9102 2.08203514,-4 3.98506114,-4 H 15.927803 c 1.40507,0 2.560928,0.6705 3.068196,1.5554 -0.644926,0.6187 -0.740691,0.7029 -1.484949,1.3699 -0.04817,-0.2759 -0.647769,-0.9253 -1.583247,-0.9253 H 4.9688853 c -0.9354695,0 -1.9925304,1.061 -1.9925304,2 v 11 c 0,0.939 0.9852734,2 1.9925304,2 H 15.927803 c 1.346538,0 1.974187,-1.2132 1.983326,-2.0149 0.0039,-0.6315 0.02009,-3.8412 0.0092,-4.4864 l 1.99253,-2 v 6.5013 c 0,2.0009 -2.082035,4 -3.985062,4 z" />
    <path
       id="path862"
       style="opacity:0.7;fill:#000000;fill-opacity:1;stroke:#000000;stroke-width:0;stroke-linecap:butt;stroke-linejoin:miter;stroke-miterlimit:4;stroke-dasharray:none;stroke-opacity:1"
       d="m 6.1916349,1041.1124 0.00138,-1.4463 1.5270554,-0.01 3.2746267,3.2401 7.491889,-7.3664 1.520458,-3e-4 v 1.6234 l -8.322503,8.0024 h -1.417569 z m -1.1753237,9.2498 c -1.9030257,0 -3.9850612,-2.0898 -3.9850612,-4 v -11 c 0,-1.9102 2.0820351,-4 3.9850612,-4 H 15.975229 c 1.40507,0 2.560928,0.6705 3.068196,1.5554 -0.644926,0.6187 -0.740691,0.7029 -1.484949,1.3699 -0.04817,-0.2759 -0.647769,-0.9253 -1.583247,-0.9253 H 5.0163112 c -0.9354695,0 -1.9925305,1.061 -1.9925305,2 v 11 c 0,0.939 0.9852735,2 1.9925305,2 H 15.975229 c 1.346538,0 1.974187,-1.2132 1.983326,-2.0149 0.0039,-0.6315 0.02009,-3.8412 0.0092,-4.4864 l 1.99253,-2 v 6.5013 c 0,2.0009 -2.082035,4 -3.985062,4 z" />
  </g>
</svg>
