<?xml version="1.0" encoding="UTF-8" standalone="no"?>
<!-- Created with Inkscape (http://www.inkscape.org/) -->

<svg
   xmlns:dc="http://purl.org/dc/elements/1.1/"
   xmlns:cc="http://creativecommons.org/ns#"
   xmlns:rdf="http://www.w3.org/1999/02/22-rdf-syntax-ns#"
   xmlns:svg="http://www.w3.org/2000/svg"
   xmlns="http://www.w3.org/2000/svg"
   xmlns:sodipodi="http://sodipodi.sourceforge.net/DTD/sodipodi-0.dtd"
   xmlns:inkscape="http://www.inkscape.org/namespaces/inkscape"
   width="22"
   height="22"
   id="svg6662"
   version="1.1"
   inkscape:version="0.92.5 (2060ec1f9f, 2020-04-08)"
   sodipodi:docname="zoomone.svg">
  <defs
     id="defs6664">
    <linearGradient
       y2="11.02436"
       y1="3.0069399"
       x2="0"
       id="linearGradient1022-8-8-3-0-27"
       gradientUnits="userSpaceOnUse">
      <stop
         id="stop3001-0-9-4-6"
         offset="0" />
      <stop
         id="stop3003-5-6-6-01"
         stop-color="#363636"
         offset="1" />
    </linearGradient>
  </defs>
  <sodipodi:namedview
     id="base"
     pagecolor="#ffffff"
     bordercolor="#666666"
     borderopacity="1.0"
     inkscape:pageopacity="0.0"
     inkscape:pageshadow="2"
     inkscape:zoom="31.678384"
     inkscape:cx="1.4147174"
     inkscape:cy="7.7488429"
     inkscape:document-units="px"
     inkscape:current-layer="capa1"
     showgrid="true"
     inkscape:showpageshadow="false"
     inkscape:window-width="1920"
     inkscape:window-height="1019"
     inkscape:window-x="0"
     inkscape:window-y="0"
     inkscape:window-maximized="1"
     inkscape:snap-global="false">
    <inkscape:grid
       type="xygrid"
       id="grid4144" />
  </sodipodi:namedview>
  <metadata
     id="metadata6667">
    <rdf:RDF>
      <cc:Work
         rdf:about="">
        <dc:format>image/svg+xml</dc:format>
        <dc:type
           rdf:resource="http://purl.org/dc/dcmitype/StillImage" />
        <dc:title></dc:title>
      </cc:Work>
    </rdf:RDF>
  </metadata>
  <g
     inkscape:label="Capa 1"
     inkscape:groupmode="layer"
     id="capa1"
     transform="translate(0,-1030.3622)">
    <g
       aria-label="1"
       transform="matrix(1.0894542,0,0,0.82182081,-0.2853072,109.39922)"
       style="font-style:normal;font-variant:normal;font-weight:normal;font-stretch:normal;font-size:14.15366173px;line-height:1.25;font-family:'Ubuntu Condensed';-inkscape-font-specification:'Ubuntu Condensed, Normal';font-variant-ligatures:normal;font-variant-caps:normal;font-variant-numeric:normal;font-feature-settings:normal;text-align:start;letter-spacing:0px;word-spacing:0px;writing-mode:lr-tb;text-anchor:start;opacity:0.6;fill:#ffffff;fill-opacity:1;stroke:none;stroke-width:0.35384279"
       id="text1040-9">
      <path
         d="m 6.9769037,1128.8886 c 0.1792797,-0.1038 0.3632773,-0.2312 0.5519928,-0.3821 0.1981513,-0.151 0.3868668,-0.3114 0.5661465,-0.4813 0.1792797,-0.1793 0.3444058,-0.3585 0.4953782,-0.5378 0.1604081,-0.1887 0.292509,-0.3727 0.3963025,-0.552 h 0.9341417 v 9.8085 H 8.7036505 v -7.6747 c -0.1604082,0.1699 -0.3491237,0.3303 -0.5661465,0.4812 -0.2075871,0.151 -0.6652221,0.4246 -0.6652221,0.4246 z"
         style="font-style:normal;font-variant:normal;font-weight:normal;font-stretch:normal;font-size:14.15366173px;font-family:'Ubuntu Condensed';-inkscape-font-specification:'Ubuntu Condensed, Normal';font-variant-ligatures:normal;font-variant-caps:normal;font-variant-numeric:normal;font-feature-settings:normal;text-align:start;writing-mode:lr-tb;text-anchor:start;fill:#ffffff;fill-opacity:1;stroke-width:0.35384279"
         id="path1062-9"
         inkscape:connector-curvature="0"
         sodipodi:nodetypes="cccccccccccc" />
    </g>
    <path
       sodipodi:nodetypes="cccccccccccccccccccc"
       inkscape:connector-curvature="0"
       id="path6323"
       d="m 4,1032.3622 -2,2 0,11 2,2 11,0 5,5 2,-2 -5,-5 0,-10.5 -2.5,-2.5 z m 1,2 9,0 1,1 0,9 -1,1 -9,0 -1,-1 0,-9 z"
       style="color:#000000;display:inline;overflow:visible;visibility:visible;opacity:0.6;fill:#ffffff;fill-opacity:1;fill-rule:nonzero;stroke:none;stroke-width:1;marker:none;enable-background:accumulate" />
    <path
       style="color:#000000;display:inline;overflow:visible;visibility:visible;opacity:0.7;fill:#000000;fill-opacity:1;fill-rule:nonzero;stroke:none;stroke-width:1;marker:none;enable-background:accumulate"
       d="m 4,1031.3622 -2,2 0,11 2,2 11,0 5,5 2,-2 -5,-5 0,-10.5 -2.5,-2.5 z m 1,2 9,0 1,1 0,9 -1,1 -9,0 -1,-1 0,-9 z"
       id="rect4518"
       inkscape:connector-curvature="0"
       sodipodi:nodetypes="cccccccccccccccccccc" />
    <g
       aria-label="1"
       transform="matrix(1.0894542,0,0,0.82182081,-0.2841054,108.54876)"
       style="font-style:normal;font-variant:normal;font-weight:normal;font-stretch:normal;font-size:14.15366173px;line-height:1.25;font-family:'Ubuntu Condensed';-inkscape-font-specification:'Ubuntu Condensed, Normal';font-variant-ligatures:normal;font-variant-caps:normal;font-variant-numeric:normal;font-feature-settings:normal;text-align:start;letter-spacing:0px;word-spacing:0px;writing-mode:lr-tb;text-anchor:start;opacity:0.8;fill:#000000;fill-opacity:1;stroke:none;stroke-width:0.35384279"
       id="text1040">
      <path
         d="m 6.9769037,1128.8886 c 0.1792797,-0.1038 0.3632773,-0.2312 0.5519928,-0.3821 0.1981513,-0.151 0.3868668,-0.3114 0.5661465,-0.4813 0.1792797,-0.1793 0.3444058,-0.3585 0.4953782,-0.5378 0.1604081,-0.1887 0.292509,-0.3727 0.3963025,-0.552 h 0.9341417 v 9.8085 H 8.7036505 v -7.6747 c -0.1604082,0.1699 -0.3491237,0.3303 -0.5661465,0.4812 -0.2075871,0.151 -0.6652221,0.4246 -0.6652221,0.4246 z"
         style="font-style:normal;font-variant:normal;font-weight:normal;font-stretch:normal;font-size:14.15366173px;font-family:'Ubuntu Condensed';-inkscape-font-specification:'Ubuntu Condensed, Normal';font-variant-ligatures:normal;font-variant-caps:normal;font-variant-numeric:normal;font-feature-settings:normal;text-align:start;writing-mode:lr-tb;text-anchor:start;stroke-width:0.35384279"
         id="path1062"
         inkscape:connector-curvature="0"
         sodipodi:nodetypes="cccccccccccc" />
    </g>
  </g>
</svg>
